<?xml version="1.0" standalone="no"?>
<!DOCTYPE svg PUBLIC "-//W3C//DTD SVG 20010904//EN"
 "http://www.w3.org/TR/2001/REC-SVG-20010904/DTD/svg10.dtd">
<svg version="1.0" xmlns="http://www.w3.org/2000/svg"
 width="572.000000pt" height="572.000000pt" viewBox="0 0 572.000000 572.000000"
 preserveAspectRatio="xMidYMid meet">
<metadata>
Created by potrace 1.14, written by Peter Selinger 2001-2017
</metadata>
<g transform="translate(0.000000,572.000000) scale(0.100000,-0.100000)"
fill="#000000" stroke="none">
<path d="M2610 5614 c-253 -22 -428 -55 -617 -115 -454 -146 -837 -393 -1187
-768 -267 -286 -507 -696 -641 -1091 -81 -240 -123 -478 -132 -740 -6 -199 5
-351 38 -530 155 -825 731 -1559 1549 -1974 311 -158 600 -248 965 -303 182
-26 562 -24 750 5 259 40 475 103 705 204 197 87 402 208 408 240 3 17 -68 18
-1373 18 -1207 0 -1376 2 -1365 15 20 24 168 115 245 150 195 89 413 135 737
156 184 12 396 8 818 -16 370 -21 876 -40 1020 -39 222 2 318 36 449 160 131
123 240 282 355 519 166 341 262 637 312 965 23 144 26 528 6 670 -59 415
-197 782 -426 1130 -472 717 -1264 1214 -2111 1325 -118 15 -418 27 -505 19z
m1815 -744 c97 -25 145 -51 189 -101 73 -86 101 -233 91 -483 -4 -94 -10 -871
-13 -1726 l-7 -1555 -295 1 c-162 0 -718 2 -1235 4 -578 2 -990 -1 -1071 -7
-156 -12 -184 -23 -354 -138 -235 -159 -329 -178 -442 -92 -134 102 -169 309
-132 782 17 217 19 359 19 1510 0 994 -3 1288 -13 1355 -20 130 -58 264 -102
358 -22 46 -40 86 -40 88 0 2 645 5 1433 8 787 3 1477 9 1532 14 141 14 350 5
440 -18z"/>
<path d="M2053 4653 c-5 -12 3 -24 28 -42 188 -142 293 -338 330 -619 17 -125
6 -460 -19 -580 -13 -66 -16 -95 -8 -97 6 -2 265 -20 576 -39 311 -20 582 -38
603 -40 45 -5 46 3 8 47 -107 121 -353 157 -835 123 -126 -9 -231 -15 -233
-12 -20 20 101 128 172 155 102 38 172 43 406 30 301 -17 404 2 508 97 59 52
77 93 107 241 53 258 11 389 -149 468 -121 59 -175 66 -632 75 -275 5 -423 12
-450 20 -53 16 -84 32 -186 96 -81 51 -128 72 -192 88 -21 5 -29 2 -34 -11z"/>
<path d="M2345 3163 c9 -39 43 -82 69 -89 12 -3 42 -4 67 -2 l44 3 -94 58
c-90 55 -93 56 -86 30z"/>
<path d="M3403 3157 c-17 -10 -73 -73 -73 -83 0 -4 180 -36 188 -33 15 6 -12
76 -39 105 -25 27 -43 29 -76 11z"/>
<path d="M2955 2689 c-214 -17 -407 -52 -530 -96 -90 -32 -97 -39 -93 -82 3
-36 4 -36 73 -54 201 -50 571 -64 1010 -37 110 7 322 13 470 14 298 2 318 6
382 68 30 29 60 84 51 93 -8 9 -280 54 -413 69 -308 35 -703 45 -950 25z"/>
<path d="M1690 2515 l0 -155 180 0 180 0 0 155 0 155 -180 0 -180 0 0 -155z
m278 3 l3 -118 -101 0 -100 0 0 113 c0 63 3 117 7 121 4 4 48 5 98 4 l90 -3 3
-117z"/>
<path d="M1696 2192 c-9 -16 12 -177 29 -220 21 -51 71 -97 122 -112 21 -6 75
-13 121 -17 l82 -6 0 182 0 181 -174 0 c-96 0 -177 -4 -180 -8z m274 -172 l0
-100 -100 0 -100 0 0 93 c0 52 3 97 7 100 3 4 48 7 100 7 l93 0 0 -100z"/>
<path d="M2687 2139 c-105 -9 -314 -45 -336 -58 -19 -12 -1 -40 54 -89 74 -65
107 -70 530 -79 633 -14 1072 -10 1205 10 160 24 176 29 172 56 -4 36 -50 88
-100 112 -45 22 -60 23 -412 30 -201 4 -446 12 -545 18 -205 12 -425 12 -568
0z"/>
<path d="M1697 1713 c-4 -3 -7 -84 -7 -180 l0 -173 180 0 180 0 0 180 0 180
-173 0 c-96 0 -177 -3 -180 -7z m273 -173 l0 -100 -100 0 -100 0 0 100 0 100
100 0 100 0 0 -100z"/>
<path d="M2555 1633 c-218 -26 -226 -29 -205 -69 35 -65 158 -118 335 -145
117 -18 541 -17 770 1 94 8 294 14 445 15 243 0 280 2 317 18 51 22 75 57 71
100 -4 40 -43 61 -138 76 -60 10 -1518 14 -1595 4z"/>
</g>
</svg>
