<?xml version="1.0" encoding="utf-8"?>
<svg viewBox="-27.043 132.212 549.88 143.028" width="549.88" height="143.028" xmlns="http://www.w3.org/2000/svg">
  <path style="fill:#aed0d2; stroke:none;" d="M 84.974 261.367 L 84.974 260.367 L 15.974 260.367 C 30.617 248.035 57.036 253.367 75.974 253.367 C 81.458 253.367 89.958 254.946 94.935 252.339 C 102.211 248.528 107.578 236.654 110.521 229.367 C 137.939 161.479 49.855 101.845 -3.026 152.407 C -10.068 159.14 -15.128 166.566 -19.244 175.367 C -48.957 238.911 29.058 298.243 84.974 261.367 Z"/>
  <path style="fill:#ffffff; stroke:none;" d="M -1.026 152.367 C 4.061 161.28 2.974 170.383 2.974 180.367 L 2.974 227.367 C 2.974 233.754 0.206 248.905 4.578 253.933 C 10.928 261.237 17.62 249.663 23.975 249.386 C 46.215 248.418 68.71 249.367 90.974 249.367 L 90.974 178.367 C 90.974 172.399 93.549 158.37 88.54 154.11 C 83.555 149.869 70.181 152.367 63.974 152.367 L -1.026 152.367 Z"/>
  <path style="fill:#aed0d2; stroke:none;" d="M 24.974 157.367 L 24.974 158.367 C 35.632 164.95 35.314 181.005 32.974 191.367 L 63.974 193.367 C 59.987 186.137 43.334 189.367 35.974 189.367 C 42.441 179.022 56.743 189.582 64.117 181.765 C 65.666 180.122 65.937 177.476 66.373 175.367 C 70.024 157.716 48.079 164.181 36.017 162.219 C 31.67 161.512 29.667 157.729 24.974 157.367 M 145.974 167.367 L 145.974 168.367 L 158.974 168.367 L 145.974 167.367 M 192.974 167.367 L 192.974 168.367 L 210.974 168.367 L 192.974 167.367 M 263.974 167.367 L 264.974 168.367 L 263.974 167.367 Z"/>
  <path style="fill:#adb5be; stroke:none;" d="M 265.641 167.701 L 266.307 168.034 L 265.641 167.701 Z"/>
  <path style="fill:#8d9aa5; stroke:none;" d="M 266.974 167.367 L 266.974 168.367 L 283.974 168.367 L 266.974 167.367 Z"/>
  <path style="fill:#aed0d2; stroke:none;" d="M 283.974 167.367 L 283.974 179.367 L 284.974 179.367 L 283.974 167.367 M 327.974 167.367 L 328.974 168.367 L 327.974 167.367 Z"/>
  <path style="fill:#8d9aa5; stroke:none;" d="M 328.974 167.367 L 328.974 168.367 L 342.974 168.367 L 328.974 167.367 Z"/>
  <path style="fill:#aed0d2; stroke:none;" d="M 381.974 167.367 L 381.974 168.367 L 415.974 168.367 L 381.974 167.367 M 460.974 167.367 L 460.974 180.367 L 461.974 180.367 L 461.974 168.367 L 520.974 168.367 L 501.974 167.367 L 460.974 167.367 Z"/>
  <path style="fill:#364a60; stroke:none;" d="M 145.974 168.367 L 145.974 240.367 L 157.974 240.367 L 158.574 225.367 L 172.884 208.367 L 208.974 168.367 C 204.362 168.367 198.35 167.357 193.974 168.971 C 180.747 173.847 167.864 194.477 157.974 204.367 L 157.974 168.367 L 145.974 168.367 Z"/>
  <path style="fill:#8d9aa5; stroke:none;" d="M 157.974 168.367 L 157.974 204.367 L 158.974 204.367 C 160.008 194.962 161.624 177.065 157.974 168.367 M 191.974 168.367 L 192.974 169.367 L 191.974 168.367 M 208.974 168.367 L 209.974 169.367 L 208.974 168.367 Z"/>
  <path style="fill:#adb5be; stroke:none;" d="M 256.974 168.367 L 257.974 169.367 L 256.974 168.367 Z"/>
  <path style="fill:#8d9aa5; stroke:none;" d="M 257.974 168.367 L 258.974 169.367 L 257.974 168.367 Z"/>
  <path style="fill:#364a60; stroke:none;" d="M 283.974 240.367 L 283.974 229.367 C 273.549 229.367 261.019 231.111 251.978 224.718 C 237.427 214.429 239.003 190.418 254.975 182.203 C 263.616 177.758 274.575 179.367 283.974 179.367 L 283.974 168.367 C 270.862 168.367 257.811 166.957 245.974 173.705 C 225.272 185.508 222.545 217.893 241.989 232.44 C 254.567 241.849 269.173 240.367 283.974 240.367 M 328.974 168.367 L 354.974 240.367 L 368.974 240.367 L 350.027 188.367 L 342.272 169.395 L 328.974 168.367 M 381.974 168.367 L 381.974 179.367 C 393.798 179.367 420.02 174.321 427.035 186.382 C 430.836 192.917 426.498 200.651 419.973 203.219 C 409.464 207.355 393.181 204.367 381.974 204.367 L 381.974 240.367 L 393.974 240.367 L 393.974 215.367 L 409.934 216.395 L 428.489 239.339 L 442.974 240.367 L 423.974 213.367 C 440.065 206.666 450.052 183.071 430.935 172.283 C 417.512 164.709 396.815 168.367 381.974 168.367 Z"/>
  <path style="fill:#8d9aa5; stroke:none;" d="M 419.974 168.367 L 420.974 169.367 L 419.974 168.367 Z"/>
  <path style="fill:#adb5be; stroke:none;" d="M 420.974 168.367 L 421.974 169.367 L 420.974 168.367 Z"/>
  <path style="fill:#aed0d2; stroke:none;" d="M 421.974 168.367 L 422.974 169.367 L 421.974 168.367 Z"/>
  <path style="fill:#364a60; stroke:none;" d="M 461.974 168.367 L 461.974 179.367 L 520.974 179.367 L 520.974 168.367 L 461.974 168.367 Z"/>
  <path style="fill:#adb5be; stroke:none;" d="M 190.974 169.367 L 191.974 170.367 L 190.974 169.367 Z"/>
  <path style="fill:#8d9aa5; stroke:none;" d="M 207.974 169.367 L 208.974 170.367 L 207.974 169.367 Z"/>
  <path style="fill:#aed0d2; stroke:none;" d="M 252.974 169.367 L 253.974 170.367 L 252.974 169.367 Z"/>
  <path style="fill:#8d9aa5; stroke:none;" d="M 253.974 169.367 L 254.974 170.367 L 253.974 169.367 M 328.974 169.367 L 329.974 170.367 L 328.974 169.367 Z"/>
  <path style="fill:#adb5be; stroke:none;" d="M 342.974 169.367 L 343.974 170.367 L 342.974 169.367 Z"/>
  <path style="fill:#8d9aa5; stroke:none;" d="M 424.641 169.701 L 425.307 170.034 L 424.641 169.701 Z"/>
  <path style="fill:#aed0d2; stroke:none;" d="M 425.974 169.367 L 426.974 170.367 L 425.974 169.367 Z"/>
  <path style="fill:#adb5be; stroke:none;" d="M 189.974 170.367 L 190.974 171.367 L 189.974 170.367 Z"/>
  <path style="fill:#8d9aa5; stroke:none;" d="M 206.974 170.367 L 207.974 171.367 L 206.974 170.367 Z"/>
  <path style="fill:#aed0d2; stroke:none;" d="M 249.974 170.367 L 250.974 171.367 L 249.974 170.367 Z"/>
  <path style="fill:#8d9aa5; stroke:none;" d="M 250.974 170.367 L 251.974 171.367 L 250.974 170.367 Z"/>
  <path style="fill:#aed0d2; stroke:none;" d="M 328.974 170.367 L 329.974 171.367 L 328.974 170.367 Z"/>
  <path style="fill:#8d9aa5; stroke:none;" d="M 427.974 170.367 L 428.974 171.367 L 427.974 170.367 Z"/>
  <path style="fill:#aed0d2; stroke:none;" d="M 428.974 170.367 L 429.974 171.367 L 428.974 170.367 Z"/>
  <path style="fill:#adb5be; stroke:none;" d="M 188.974 171.367 L 189.974 172.367 L 188.974 171.367 Z"/>
  <path style="fill:#8d9aa5; stroke:none;" d="M 205.974 171.367 L 206.974 172.367 L 205.974 171.367 Z"/>
  <path style="fill:#aed0d2; stroke:none;" d="M 247.974 171.367 L 248.974 172.367 L 247.974 171.367 Z"/>
  <path style="fill:#8d9aa5; stroke:none;" d="M 248.974 171.367 L 249.974 172.367 L 248.974 171.367 M 429.974 171.367 L 430.974 172.367 L 429.974 171.367 Z"/>
  <path style="fill:#aed0d2; stroke:none;" d="M 430.974 171.367 L 431.974 172.367 L 430.974 171.367 Z"/>
  <path style="fill:#adb5be; stroke:none;" d="M 187.974 172.367 L 188.974 173.367 L 187.974 172.367 Z"/>
  <path style="fill:#8d9aa5; stroke:none;" d="M 204.974 172.367 L 205.974 173.367 L 204.974 172.367 Z"/>
  <path style="fill:#aed0d2; stroke:none;" d="M 245.974 172.367 L 246.974 173.367 L 245.974 172.367 Z"/>
  <path style="fill:#8d9aa5; stroke:none;" d="M 246.974 172.367 L 247.974 173.367 L 246.974 172.367 Z"/>
  <path style="fill:#adb5be; stroke:none;" d="M 329.974 172.367 L 330.974 173.367 L 329.974 172.367 Z"/>
  <path style="fill:#8d9aa5; stroke:none;" d="M 343.974 172.367 L 344.974 173.367 L 343.974 172.367 Z"/>
  <path style="fill:#adb5be; stroke:none;" d="M 431.974 172.367 L 432.974 173.367 L 431.974 172.367 M 186.974 173.367 L 187.974 174.367 L 186.974 173.367 Z"/>
  <path style="fill:#8d9aa5; stroke:none;" d="M 203.974 173.367 L 204.974 174.367 L 203.974 173.367 Z"/>
  <path style="fill:#aed0d2; stroke:none;" d="M 243.974 173.367 L 244.974 174.367 L 243.974 173.367 Z"/>
  <path style="fill:#8d9aa5; stroke:none;" d="M 244.974 173.367 L 245.974 174.367 L 244.974 173.367 M 432.974 173.367 L 433.974 174.367 L 432.974 173.367 Z"/>
  <path style="fill:#adb5be; stroke:none;" d="M 185.974 174.367 L 186.974 175.367 L 185.974 174.367 M 242.974 174.367 L 243.974 175.367 L 242.974 174.367 Z"/>
  <path style="fill:#8d9aa5; stroke:none;" d="M 330.974 174.367 L 331.974 175.367 L 330.974 174.367 Z"/>
  <path style="fill:#aed0d2; stroke:none;" d="M 344.974 174.367 L 345.974 175.367 L 344.974 174.367 Z"/>
  <path style="fill:#adb5be; stroke:none;" d="M 184.974 175.367 L 185.974 176.367 L 184.974 175.367 Z"/>
  <path style="fill:#aed0d2; stroke:none;" d="M 202.974 175.367 L 203.974 176.367 L 202.974 175.367 Z"/>
  <path style="fill:#8d9aa5; stroke:none;" d="M 241.974 175.367 L 242.974 176.367 L 241.974 175.367 Z"/>
  <path style="fill:#adb5be; stroke:none;" d="M 330.974 175.367 L 331.974 176.367 L 330.974 175.367 Z"/>
  <path style="fill:#8d9aa5; stroke:none;" d="M 344.974 175.367 L 345.974 176.367 L 344.974 175.367 M 434.974 175.367 L 435.974 176.367 L 434.974 175.367 Z"/>
  <path style="fill:#aed0d2; stroke:none;" d="M 183.974 176.367 L 184.974 177.367 L 183.974 176.367 M 201.974 176.367 L 202.974 177.367 L 201.974 176.367 Z"/>
  <path style="fill:#8d9aa5; stroke:none;" d="M 240.974 176.367 L 241.974 177.367 L 240.974 176.367 M 435.974 176.367 L 436.974 177.367 L 435.974 176.367 Z"/>
  <path style="fill:#aed0d2; stroke:none;" d="M 182.974 177.367 L 183.974 178.367 L 182.974 177.367 M 200.974 177.367 L 201.974 178.367 L 200.974 177.367 Z"/>
  <path style="fill:#8d9aa5; stroke:none;" d="M 331.974 177.367 L 332.974 178.367 L 331.974 177.367 Z"/>
  <path style="fill:#adb5be; stroke:none;" d="M 345.974 177.367 L 346.974 178.367 L 345.974 177.367 Z"/>
  <path style="fill:#8d9aa5; stroke:none;" d="M 436.974 177.367 L 437.974 178.367 L 436.974 177.367 Z"/>
  <path style="fill:#aed0d2; stroke:none;" d="M 181.974 178.367 L 182.974 179.367 L 181.974 178.367 M 199.974 178.367 L 200.974 179.367 L 199.974 178.367 M 237.974 178.367 L 238.974 179.367 L 237.974 178.367 Z"/>
  <path style="fill:#adb5be; stroke:none;" d="M 331.974 178.367 L 332.974 179.367 L 331.974 178.367 Z"/>
  <path style="fill:#8d9aa5; stroke:none;" d="M 345.974 178.367 L 346.974 179.367 L 345.974 178.367 Z"/>
  <path style="fill:#aed0d2; stroke:none;" d="M 437.974 178.367 L 438.974 179.367 L 437.974 178.367 M 180.974 179.367 L 181.974 180.367 L 180.974 179.367 Z"/>
  <path style="fill:#adb5be; stroke:none;" d="M 198.974 179.367 L 199.974 180.367 L 198.974 179.367 Z"/>
  <path style="fill:#aed0d2; stroke:none;" d="M 236.974 179.367 L 237.974 180.367 L 236.974 179.367 Z"/>
  <path style="fill:#8d9aa5; stroke:none;" d="M 260.974 179.367 L 261.974 180.367 L 260.974 179.367 Z"/>
  <path style="fill:#adb5be; stroke:none;" d="M 262.641 179.701 L 263.307 180.034 L 262.641 179.701 Z"/>
  <path style="fill:#aed0d2; stroke:none;" d="M 263.974 179.367 L 264.974 180.367 L 263.974 179.367 M 381.974 179.367 L 381.974 180.367 L 414.974 180.367 L 381.974 179.367 Z"/>
  <path style="fill:#adb5be; stroke:none;" d="M 414.974 179.367 L 415.974 180.367 L 414.974 179.367 Z"/>
  <path style="fill:#8d9aa5; stroke:none;" d="M 415.974 179.367 L 415.974 180.367 L 418.974 180.367 L 415.974 179.367 M 437.974 179.367 L 438.974 180.367 L 437.974 179.367 M 461.974 179.367 L 461.974 180.367 L 520.974 180.367 L 501.974 179.367 L 461.974 179.367 Z"/>
  <path style="fill:#aed0d2; stroke:none;" d="M 179.974 180.367 L 180.974 181.367 L 179.974 180.367 Z"/>
  <path style="fill:#adb5be; stroke:none;" d="M 197.974 180.367 L 198.974 181.367 L 197.974 180.367 Z"/>
  <path style="fill:#8d9aa5; stroke:none;" d="M 257.641 180.701 L 258.307 181.034 L 257.641 180.701 Z"/>
  <path style="fill:#aed0d2; stroke:none;" d="M 258.974 180.367 L 259.974 181.367 L 258.974 180.367 Z"/>
  <path style="fill:#8d9aa5; stroke:none;" d="M 332.974 180.367 L 333.974 181.367 L 332.974 180.367 Z"/>
  <path style="fill:#adb5be; stroke:none;" d="M 346.974 180.367 L 347.974 181.367 L 346.974 180.367 Z"/>
  <path style="fill:#aed0d2; stroke:none;" d="M 419.974 180.367 L 420.974 181.367 L 419.974 180.367 Z"/>
  <path style="fill:#8d9aa5; stroke:none;" d="M 420.974 180.367 L 421.974 181.367 L 420.974 180.367 Z"/>
  <path style="fill:#adb5be; stroke:none;" d="M 438.974 180.367 L 439.974 181.367 L 438.974 180.367 Z"/>
  <path style="fill:#aed0d2; stroke:none;" d="M 178.974 181.367 L 179.974 182.367 L 178.974 181.367 Z"/>
  <path style="fill:#adb5be; stroke:none;" d="M 196.974 181.367 L 197.974 182.367 L 196.974 181.367 Z"/>
  <path style="fill:#8d9aa5; stroke:none;" d="M 254.974 181.367 L 255.974 182.367 L 254.974 181.367 Z"/>
  <path style="fill:#aed0d2; stroke:none;" d="M 255.974 181.367 L 256.974 182.367 L 255.974 181.367 M 332.974 181.367 L 333.974 182.367 L 332.974 181.367 Z"/>
  <path style="fill:#8d9aa5; stroke:none;" d="M 422.974 181.367 L 423.974 182.367 L 422.974 181.367 Z"/>
  <path style="fill:#aed0d2; stroke:none;" d="M 177.974 182.367 L 178.974 183.367 L 177.974 182.367 Z"/>
  <path style="fill:#8d9aa5; stroke:none;" d="M 195.974 182.367 L 196.974 183.367 L 195.974 182.367 M 234.974 182.367 L 235.974 183.367 L 234.974 182.367 M 252.974 182.367 L 253.974 183.367 L 252.974 182.367 Z"/>
  <path style="fill:#aed0d2; stroke:none;" d="M 253.974 182.367 L 254.974 183.367 L 253.974 182.367 M 423.974 182.367 L 424.974 183.367 L 423.974 182.367 M 439.974 182.367 L 440.974 183.367 L 439.974 182.367 M 176.974 183.367 L 177.974 184.367 L 176.974 183.367 Z"/>
  <path style="fill:#8d9aa5; stroke:none;" d="M 194.974 183.367 L 195.974 184.367 L 194.974 183.367 M 233.974 183.367 L 234.974 184.367 L 233.974 183.367 M 250.974 183.367 L 251.974 184.367 L 250.974 183.367 Z"/>
  <path style="fill:#aed0d2; stroke:none;" d="M 251.974 183.367 L 252.974 184.367 L 251.974 183.367 Z"/>
  <path style="fill:#8d9aa5; stroke:none;" d="M 333.974 183.367 L 334.974 184.367 L 333.974 183.367 M 347.974 183.367 L 348.974 184.367 L 347.974 183.367 Z"/>
  <path style="fill:#aed0d2; stroke:none;" d="M 424.974 183.367 L 425.974 184.367 L 424.974 183.367 Z"/>
  <path style="fill:#8d9aa5; stroke:none;" d="M 439.974 183.367 L 440.974 184.367 L 439.974 183.367 Z"/>
  <path style="fill:#aed0d2; stroke:none;" d="M 175.974 184.367 L 176.974 185.367 L 175.974 184.367 Z"/>
  <path style="fill:#8d9aa5; stroke:none;" d="M 193.974 184.367 L 194.974 185.367 L 193.974 184.367 Z"/>
  <path style="fill:#aed0d2; stroke:none;" d="M 232.974 184.367 L 233.974 185.367 L 232.974 184.367 Z"/>
  <path style="fill:#8d9aa5; stroke:none;" d="M 249.974 184.367 L 250.974 185.367 L 249.974 184.367 Z"/>
  <path style="fill:#aed0d2; stroke:none;" d="M 333.974 184.367 L 334.974 185.367 L 333.974 184.367 M 425.974 184.367 L 426.974 185.367 L 425.974 184.367 Z"/>
  <path style="fill:#8d9aa5; stroke:none;" d="M 192.974 185.367 L 193.974 186.367 L 192.974 185.367 M 232.974 185.367 L 233.974 186.367 L 232.974 185.367 M 248.974 185.367 L 249.974 186.367 L 248.974 185.367 M 320.974 185.367 L 321.974 186.367 L 320.974 185.367 Z"/>
  <path style="fill:#adb5be; stroke:none;" d="M 321.974 185.367 L 322.974 186.367 L 321.974 185.367 Z"/>
  <path style="fill:#aed0d2; stroke:none;" d="M 348.974 185.367 L 349.974 186.367 L 348.974 185.367 Z"/>
  <path style="fill:#8d9aa5; stroke:none;" d="M 426.974 185.367 L 427.974 186.367 L 426.974 185.367 Z"/>
  <path style="fill:#aed0d2; stroke:none;" d="M 441.307 186.034 L 441.641 186.7 L 441.307 186.034 Z"/>
  <path style="fill:#8d9aa5; stroke:none;" d="M 191.974 186.367 L 192.974 187.367 L 191.974 186.367 Z"/>
  <path style="fill:#aed0d2; stroke:none;" d="M 231.974 186.367 L 232.974 187.367 L 231.974 186.367 Z"/>
  <path style="fill:#8d9aa5; stroke:none;" d="M 247.974 186.367 L 248.974 187.367 L 247.974 186.367 Z"/>
  <path style="fill:#364a60; stroke:none;" d="M 320.974 186.367 L 299.974 240.367 C 303.47 240.367 309.335 241.475 312.325 239.339 C 315.741 236.899 317.081 230.101 318.574 226.367 C 323.072 215.123 334.09 196.208 320.974 186.367 Z"/>
  <path style="fill:#adb5be; stroke:none;" d="M 334.974 186.367 L 335.974 187.367 L 334.974 186.367 Z"/>
  <path style="fill:#8d9aa5; stroke:none;" d="M 348.974 186.367 L 349.974 187.367 L 348.974 186.367 Z"/>
  <path style="fill:#adb5be; stroke:none;" d="M 426.974 186.367 L 427.974 187.367 L 426.974 186.367 Z"/>
  <path style="fill:#8d9aa5; stroke:none;" d="M 190.974 187.367 L 191.974 188.367 L 190.974 187.367 M 231.974 187.367 L 232.974 188.367 L 231.974 187.367 Z"/>
  <path style="fill:#aed0d2; stroke:none;" d="M 319.974 187.367 L 320.974 188.367 L 319.974 187.367 M 322.974 187.367 L 323.974 188.367 L 322.974 187.367 M 334.974 187.367 L 335.974 188.367 L 334.974 187.367 M 426.974 187.367 L 427.974 188.367 L 426.974 187.367 Z"/>
  <path style="fill:#adb5be; stroke:none;" d="M 440.974 187.367 L 441.974 188.367 L 440.974 187.367 Z"/>
  <path style="fill:#8d9aa5; stroke:none;" d="M 189.974 188.367 L 190.974 189.367 L 189.974 188.367 Z"/>
  <path style="fill:#aed0d2; stroke:none;" d="M 230.974 188.367 L 231.974 189.367 L 230.974 188.367 Z"/>
  <path style="fill:#8d9aa5; stroke:none;" d="M 319.974 188.367 L 320.974 189.367 L 319.974 188.367 M 322.974 188.367 L 323.974 189.367 L 322.974 188.367 M 335.974 188.367 L 336.974 189.367 L 335.974 188.367 Z"/>
  <path style="fill:#aed0d2; stroke:none;" d="M 349.974 188.367 L 350.974 189.367 L 349.974 188.367 Z"/>
  <path style="fill:#8d9aa5; stroke:none;" d="M 440.974 188.367 L 440.974 193.367 L 441.974 193.367 L 440.974 188.367 M 171.974 189.367 L 172.974 190.367 L 171.974 189.367 M 230.974 189.367 L 231.974 190.367 L 230.974 189.367 Z"/>
  <path style="fill:#aed0d2; stroke:none;" d="M 245.974 189.367 L 246.974 190.367 L 245.974 189.367 Z"/>
  <path style="fill:#adb5be; stroke:none;" d="M 335.974 189.367 L 336.974 190.367 L 335.974 189.367 Z"/>
  <path style="fill:#8d9aa5; stroke:none;" d="M 349.974 189.367 L 350.974 190.367 L 349.974 189.367 M 427.974 189.367 L 427.974 194.367 L 428.974 194.367 L 427.974 189.367 M 170.974 190.367 L 171.974 191.367 L 170.974 190.367 Z"/>
  <path style="fill:#aed0d2; stroke:none;" d="M 188.974 190.367 L 189.974 191.367 L 188.974 190.367 Z"/>
  <path style="fill:#8d9aa5; stroke:none;" d="M 244.974 190.367 L 245.974 191.367 L 244.974 190.367 M 318.974 190.367 L 319.974 191.367 L 318.974 190.367 Z"/>
  <path style="fill:#aed0d2; stroke:none;" d="M 323.974 190.367 L 324.974 191.367 L 323.974 190.367 Z"/>
  <path style="fill:#8d9aa5; stroke:none;" d="M 169.974 191.367 L 170.974 192.367 L 169.974 191.367 Z"/>
  <path style="fill:#aed0d2; stroke:none;" d="M 187.974 191.367 L 188.974 192.367 L 187.974 191.367 Z"/>
  <path style="fill:#adb5be; stroke:none;" d="M 229.974 191.367 L 230.974 192.367 L 229.974 191.367 Z"/>
  <path style="fill:#8d9aa5; stroke:none;" d="M 323.974 191.367 L 324.974 192.367 L 323.974 191.367 M 336.974 191.367 L 337.974 192.367 L 336.974 191.367 Z"/>
  <path style="fill:#adb5be; stroke:none;" d="M 350.974 191.367 L 351.974 192.367 L 350.974 191.367 Z"/>
  <path style="fill:#8d9aa5; stroke:none;" d="M 484.974 191.367 L 484.974 192.367 L 496.974 192.367 L 496.974 240.367 L 484.974 240.367 L 484.974 241.367 L 497.974 241.367 L 497.974 191.367 L 484.974 191.367 M 168.974 192.367 L 169.974 193.367 L 168.974 192.367 Z"/>
  <path style="fill:#aed0d2; stroke:none;" d="M 186.974 192.367 L 187.974 193.367 L 186.974 192.367 Z"/>
  <path style="fill:#8d9aa5; stroke:none;" d="M 229.974 192.367 L 230.974 193.367 L 229.974 192.367 Z"/>
  <path style="fill:#adb5be; stroke:none;" d="M 243.974 192.367 L 244.974 193.367 L 243.974 192.367 M 317.974 192.367 L 318.974 193.367 L 317.974 192.367 M 336.974 192.367 L 337.974 193.367 L 336.974 192.367 Z"/>
  <path style="fill:#364a60; stroke:none;" d="M 484.974 192.367 L 484.974 240.367 L 496.974 240.367 L 496.974 192.367 L 484.974 192.367 Z"/>
  <path style="fill:#aed0d2; stroke:none;" d="M 31.974 194.367 C 32.974 197.403 33.837 197.861 36.974 197.367 L 31.974 194.367 M 56.974 197.367 L 61.974 198.367 C 61.269 194.342 59.068 193.722 56.974 197.367 Z"/>
  <path style="fill:#8d9aa5; stroke:none;" d="M 167.974 193.367 L 168.974 194.367 L 167.974 193.367 Z"/>
  <path style="fill:#aed0d2; stroke:none;" d="M 185.974 193.367 L 186.974 194.367 L 185.974 193.367 Z"/>
  <path style="fill:#8d9aa5; stroke:none;" d="M 317.974 193.367 L 318.974 194.367 L 317.974 193.367 Z"/>
  <path style="fill:#adb5be; stroke:none;" d="M 324.974 193.367 L 325.974 194.367 L 324.974 193.367 M 440.974 193.367 L 441.974 194.367 L 440.974 193.367 Z"/>
  <path style="fill:#8d9aa5; stroke:none;" d="M 166.974 194.367 L 167.974 195.367 L 166.974 194.367 Z"/>
  <path style="fill:#adb5be; stroke:none;" d="M 184.974 194.367 L 185.974 195.367 L 184.974 194.367 Z"/>
  <path style="fill:#aed0d2; stroke:none;" d="M 228.974 194.367 L 229.974 195.367 L 228.974 194.367 Z"/>
  <path style="fill:#adb5be; stroke:none;" d="M 242.974 194.367 L 243.974 195.367 L 242.974 194.367 Z"/>
  <path style="fill:#8d9aa5; stroke:none;" d="M 337.974 194.367 L 338.974 195.367 L 337.974 194.367 M 351.974 194.367 L 352.974 195.367 L 351.974 194.367 Z"/>
  <path style="fill:#aed0d2; stroke:none;" d="M 440.974 194.367 L 441.974 195.367 L 440.974 194.367 Z"/>
  <path style="fill:#8d9aa5; stroke:none;" d="M 165.974 195.367 L 166.974 196.367 L 165.974 195.367 Z"/>
  <path style="fill:#adb5be; stroke:none;" d="M 183.974 195.367 L 184.974 196.367 L 183.974 195.367 Z"/>
  <path style="fill:#8d9aa5; stroke:none;" d="M 228.974 195.367 L 229.974 196.367 L 228.974 195.367 Z"/>
  <path style="fill:#aed0d2; stroke:none;" d="M 242.974 195.367 L 243.974 196.367 L 242.974 195.367 Z"/>
  <path style="fill:#8d9aa5; stroke:none;" d="M 316.974 195.367 L 317.974 196.367 L 316.974 195.367 Z"/>
  <path style="fill:#aed0d2; stroke:none;" d="M 325.974 195.367 L 326.974 196.367 L 325.974 195.367 M 337.974 195.367 L 338.974 196.367 L 337.974 195.367 M 426.974 195.367 L 427.974 196.367 L 426.974 195.367 Z"/>
  <path style="fill:#8d9aa5; stroke:none;" d="M 164.974 196.367 L 165.974 197.367 L 164.974 196.367 Z"/>
  <path style="fill:#adb5be; stroke:none;" d="M 182.974 196.367 L 183.974 197.367 L 182.974 196.367 Z"/>
  <path style="fill:#8d9aa5; stroke:none;" d="M 325.974 196.367 L 326.974 197.367 L 325.974 196.367 Z"/>
  <path style="fill:#aed0d2; stroke:none;" d="M 352.974 196.367 L 353.974 197.367 L 352.974 196.367 Z"/>
  <path style="fill:#8d9aa5; stroke:none;" d="M 426.974 196.367 L 427.974 197.367 L 426.974 196.367 M 163.974 197.367 L 164.974 198.367 L 163.974 197.367 M 181.974 197.367 L 182.974 198.367 L 181.974 197.367 M 241.974 197.367 L 242.974 198.367 L 241.974 197.367 Z"/>
  <path style="fill:#adb5be; stroke:none;" d="M 315.974 197.367 L 316.974 198.367 L 315.974 197.367 Z"/>
  <path style="fill:#8d9aa5; stroke:none;" d="M 338.974 197.367 L 339.974 198.367 L 338.974 197.367 M 352.974 197.367 L 353.974 198.367 L 352.974 197.367 M 439.974 197.367 L 440.974 198.367 L 439.974 197.367 M 162.974 198.367 L 163.974 199.367 L 162.974 198.367 M 180.974 198.367 L 181.974 199.367 L 180.974 198.367 Z"/>
  <path style="fill:#aed0d2; stroke:none;" d="M 228.307 199.034 L 228.641 199.7 L 228.307 199.034 M 242.307 199.034 L 242.641 199.7 L 242.307 199.034 Z"/>
  <path style="fill:#8d9aa5; stroke:none;" d="M 315.974 198.367 L 316.974 199.367 L 315.974 198.367 Z"/>
  <path style="fill:#adb5be; stroke:none;" d="M 326.974 198.367 L 327.974 199.367 L 326.974 198.367 Z"/>
  <path style="fill:#aed0d2; stroke:none;" d="M 338.974 198.367 L 339.974 199.367 L 338.974 198.367 Z"/>
  <path style="fill:#adb5be; stroke:none;" d="M 425.974 198.367 L 426.974 199.367 L 425.974 198.367 M 439.974 198.367 L 440.974 199.367 L 439.974 198.367 Z"/>
  <path style="fill:#8d9aa5; stroke:none;" d="M 161.974 199.367 L 162.974 200.367 L 161.974 199.367 M 179.974 199.367 L 180.974 200.367 L 179.974 199.367 Z"/>
  <path style="fill:#aed0d2; stroke:none;" d="M 314.974 199.367 L 315.974 200.367 L 314.974 199.367 Z"/>
  <path style="fill:#8d9aa5; stroke:none;" d="M 326.974 199.367 L 327.974 200.367 L 326.974 199.367 Z"/>
  <path style="fill:#aed0d2; stroke:none;" d="M 353.974 199.367 L 354.974 200.367 L 353.974 199.367 M 424.974 199.367 L 425.974 200.367 L 424.974 199.367 Z"/>
  <path style="fill:#8d9aa5; stroke:none;" d="M 160.974 200.367 L 161.974 201.367 L 160.974 200.367 M 178.974 200.367 L 179.974 201.367 L 178.974 200.367 Z"/>
  <path style="fill:#adb5be; stroke:none;" d="M 227.974 200.367 L 228.974 201.367 L 227.974 200.367 Z"/>
  <path style="fill:#8d9aa5; stroke:none;" d="M 314.974 200.367 L 315.974 201.367 L 314.974 200.367 M 339.974 200.367 L 340.974 201.367 L 339.974 200.367 M 353.974 200.367 L 354.974 201.367 L 353.974 200.367 Z"/>
  <path style="fill:#adb5be; stroke:none;" d="M 423.974 200.367 L 424.974 201.367 L 423.974 200.367 Z"/>
  <path style="fill:#8d9aa5; stroke:none;" d="M 438.974 200.367 L 439.974 201.367 L 438.974 200.367 M 159.974 201.367 L 160.974 202.367 L 159.974 201.367 M 177.974 201.367 L 178.974 202.367 L 177.974 201.367 M 227.974 201.367 L 227.974 207.367 L 228.974 207.367 L 227.974 201.367 M 327.974 201.367 L 328.974 202.367 L 327.974 201.367 Z"/>
  <path style="fill:#aed0d2; stroke:none;" d="M 339.974 201.367 L 340.974 202.367 L 339.974 201.367 M 421.974 201.367 L 422.974 202.367 L 421.974 201.367 Z"/>
  <path style="fill:#8d9aa5; stroke:none;" d="M 422.974 201.367 L 423.974 202.367 L 422.974 201.367 Z"/>
  <path style="fill:#aed0d2; stroke:none;" d="M 438.974 201.367 L 439.974 202.367 L 438.974 201.367 Z"/>
  <path style="fill:#8d9aa5; stroke:none;" d="M 176.974 202.367 L 177.974 203.367 L 176.974 202.367 Z"/>
  <path style="fill:#adb5be; stroke:none;" d="M 313.974 202.367 L 314.974 203.367 L 313.974 202.367 Z"/>
  <path style="fill:#8d9aa5; stroke:none;" d="M 340.974 202.367 L 341.974 203.367 L 340.974 202.367 Z"/>
  <path style="fill:#adb5be; stroke:none;" d="M 354.974 202.367 L 355.974 203.367 L 354.974 202.367 Z"/>
  <path style="fill:#aed0d2; stroke:none;" d="M 419.974 202.367 L 420.974 203.367 L 419.974 202.367 Z"/>
  <path style="fill:#8d9aa5; stroke:none;" d="M 420.974 202.367 L 421.974 203.367 L 420.974 202.367 M 437.974 202.367 L 438.974 203.367 L 437.974 202.367 M 175.974 203.367 L 176.974 204.367 L 175.974 203.367 M 326.974 203.367 L 327.974 204.367 L 326.974 203.367 Z"/>
  <path style="fill:#adb5be; stroke:none;" d="M 340.974 203.367 L 341.974 204.367 L 340.974 203.367 Z"/>
  <path style="fill:#aed0d2; stroke:none;" d="M 381.974 203.367 L 381.974 204.367 L 414.974 204.367 L 381.974 203.367 Z"/>
  <path style="fill:#adb5be; stroke:none;" d="M 415.641 203.7 L 416.307 204.034 L 415.641 203.7 Z"/>
  <path style="fill:#8d9aa5; stroke:none;" d="M 417.641 203.7 L 418.307 204.034 L 417.641 203.7 Z"/>
  <path style="fill:#aed0d2; stroke:none;" d="M 312.974 204.367 L 313.974 205.367 L 312.974 204.367 M 326.974 204.367 L 327.974 205.367 L 326.974 204.367 M 436.974 204.367 L 437.974 205.367 L 436.974 204.367 M 174.974 205.367 L 175.974 206.367 L 174.974 205.367 Z"/>
  <path style="fill:#8d9aa5; stroke:none;" d="M 312.974 205.367 L 313.974 206.367 L 312.974 205.367 M 341.974 205.367 L 342.974 206.367 L 341.974 205.367 M 355.974 205.367 L 356.974 206.367 L 355.974 205.367 M 435.974 205.367 L 436.974 206.367 L 435.974 205.367 Z"/>
  <path style="fill:#aed0d2; stroke:none;" d="M 173.974 206.367 L 174.974 207.367 L 173.974 206.367 Z"/>
  <path style="fill:#adb5be; stroke:none;" d="M 325.974 206.367 L 326.974 207.367 L 325.974 206.367 M 341.974 206.367 L 342.974 207.367 L 341.974 206.367 Z"/>
  <path style="fill:#8d9aa5; stroke:none;" d="M 434.974 206.367 L 435.974 207.367 L 434.974 206.367 Z"/>
  <path style="fill:#aed0d2; stroke:none;" d="M 15.974 207.367 L 15.974 215.367 L 24.974 215.367 L 24.974 207.367 L 15.974 207.367 M 172.974 207.367 L 173.974 208.367 L 172.974 207.367 Z"/>
  <path style="fill:#adb5be; stroke:none;" d="M 227.974 207.367 L 228.974 208.367 L 227.974 207.367 M 311.974 207.367 L 312.974 208.367 L 311.974 207.367 Z"/>
  <path style="fill:#aed0d2; stroke:none;" d="M 356.974 207.367 L 357.974 208.367 L 356.974 207.367 Z"/>
  <path style="fill:#8d9aa5; stroke:none;" d="M 433.974 207.367 L 434.974 208.367 L 433.974 207.367 Z"/>
  <path style="fill:#ffffff; stroke:none;" d="M 17.974 208.367 L 17.974 214.367 L 22.974 214.367 L 22.974 208.367 L 17.974 208.367 Z"/>
  <path style="fill:#aed0d2; stroke:none;" d="M 31.974 210.367 L 31.974 212.367 C 43.333 215.725 58.141 213.367 69.974 213.367 C 74.674 213.367 80.234 214.608 81.974 209.367 C 69.741 206.455 43.349 204.893 31.974 210.367 M 171.974 208.367 L 172.974 209.367 L 171.974 208.367 M 184.974 208.367 L 185.974 209.367 L 184.974 208.367 M 228.307 209.034 L 228.641 209.7 L 228.307 209.034 M 242.307 209.034 L 242.641 209.7 L 242.307 209.034 Z"/>
  <path style="fill:#8d9aa5; stroke:none;" d="M 324.974 208.367 L 325.974 209.367 L 324.974 208.367 M 342.974 208.367 L 343.974 209.367 L 342.974 208.367 M 356.974 208.367 L 357.974 209.367 L 356.974 208.367 Z"/>
  <path style="fill:#adb5be; stroke:none;" d="M 432.974 208.367 L 433.974 209.367 L 432.974 208.367 M 170.974 209.367 L 171.974 210.367 L 170.974 209.367 Z"/>
  <path style="fill:#8d9aa5; stroke:none;" d="M 183.974 209.367 L 182.974 211.367 L 183.974 209.367 Z"/>
  <path style="fill:#364a60; stroke:none;" d="M 184.974 209.367 C 182.661 211.708 178.647 214.737 178.606 218.367 C 178.54 224.127 190.804 237.833 195.978 239.764 C 199.809 241.193 204.939 240.367 208.974 240.367 C 204.221 229.702 193.437 217.409 184.974 209.367 Z"/>
  <path style="fill:#aed0d2; stroke:none;" d="M 310.974 209.367 L 311.974 210.367 L 310.974 209.367 M 324.974 209.367 L 325.974 210.367 L 324.974 209.367 M 342.974 209.367 L 343.974 210.367 L 342.974 209.367 Z"/>
  <path style="fill:#8d9aa5; stroke:none;" d="M 430.974 209.367 L 431.974 210.367 L 430.974 209.367 Z"/>
  <path style="fill:#aed0d2; stroke:none;" d="M 431.974 209.367 L 432.974 210.367 L 431.974 209.367 Z"/>
  <path style="fill:#adb5be; stroke:none;" d="M 169.974 210.367 L 170.974 211.367 L 169.974 210.367 Z"/>
  <path style="fill:#8d9aa5; stroke:none;" d="M 185.974 210.367 L 186.974 211.367 L 185.974 210.367 M 241.974 210.367 L 242.974 211.367 L 241.974 210.367 M 310.974 210.367 L 311.974 211.367 L 310.974 210.367 Z"/>
  <path style="fill:#aed0d2; stroke:none;" d="M 357.974 210.367 L 358.974 211.367 L 357.974 210.367 Z"/>
  <path style="fill:#8d9aa5; stroke:none;" d="M 428.974 210.367 L 429.974 211.367 L 428.974 210.367 Z"/>
  <path style="fill:#adb5be; stroke:none;" d="M 429.974 210.367 L 430.974 211.367 L 429.974 210.367 M 168.974 211.367 L 169.974 212.367 L 168.974 211.367 M 181.974 211.367 L 182.974 212.367 L 181.974 211.367 Z"/>
  <path style="fill:#8d9aa5; stroke:none;" d="M 186.974 211.367 L 187.974 212.367 L 186.974 211.367 Z"/>
  <path style="fill:#adb5be; stroke:none;" d="M 323.974 211.367 L 324.974 212.367 L 323.974 211.367 Z"/>
  <path style="fill:#8d9aa5; stroke:none;" d="M 343.974 211.367 L 344.974 212.367 L 343.974 211.367 M 357.974 211.367 L 358.974 212.367 L 357.974 211.367 M 426.974 211.367 L 427.974 212.367 L 426.974 211.367 Z"/>
  <path style="fill:#aed0d2; stroke:none;" d="M 427.974 211.367 L 428.974 212.367 L 427.974 211.367 Z"/>
  <path style="fill:#8d9aa5; stroke:none;" d="M 167.974 212.367 L 168.974 213.367 L 167.974 212.367 Z"/>
  <path style="fill:#adb5be; stroke:none;" d="M 180.974 212.367 L 181.974 213.367 L 180.974 212.367 M 187.974 212.367 L 188.974 213.367 L 187.974 212.367 Z"/>
  <path style="fill:#8d9aa5; stroke:none;" d="M 228.974 212.367 L 229.974 213.367 L 228.974 212.367 Z"/>
  <path style="fill:#adb5be; stroke:none;" d="M 309.974 212.367 L 310.974 213.367 L 309.974 212.367 Z"/>
  <path style="fill:#aed0d2; stroke:none;" d="M 343.974 212.367 L 344.974 213.367 L 343.974 212.367 Z"/>
  <path style="fill:#8d9aa5; stroke:none;" d="M 424.974 212.367 L 425.974 213.367 L 424.974 212.367 M 166.974 213.367 L 167.974 214.367 L 166.974 213.367 Z"/>
  <path style="fill:#aed0d2; stroke:none;" d="M 179.974 213.367 L 180.974 214.367 L 179.974 213.367 M 188.974 213.367 L 189.974 214.367 L 188.974 213.367 M 228.974 213.367 L 229.974 214.367 L 228.974 213.367 Z"/>
  <path style="fill:#adb5be; stroke:none;" d="M 242.974 213.367 L 243.974 214.367 L 242.974 213.367 Z"/>
  <path style="fill:#8d9aa5; stroke:none;" d="M 322.974 213.367 L 323.974 214.367 L 322.974 213.367 M 344.974 213.367 L 345.974 214.367 L 344.974 213.367 Z"/>
  <path style="fill:#adb5be; stroke:none;" d="M 358.974 213.367 L 359.974 214.367 L 358.974 213.367 Z"/>
  <path style="fill:#8d9aa5; stroke:none;" d="M 423.974 213.367 L 424.974 214.367 L 423.974 213.367 M 165.974 214.367 L 166.974 215.367 L 165.974 214.367 Z"/>
  <path style="fill:#aed0d2; stroke:none;" d="M 178.974 214.367 L 179.974 215.367 L 178.974 214.367 Z"/>
  <path style="fill:#8d9aa5; stroke:none;" d="M 242.974 214.367 L 243.974 215.367 L 242.974 214.367 Z"/>
  <path style="fill:#aed0d2; stroke:none;" d="M 308.974 214.367 L 309.974 215.367 L 308.974 214.367 M 322.974 214.367 L 323.974 215.367 L 322.974 214.367 Z"/>
  <path style="fill:#adb5be; stroke:none;" d="M 344.974 214.367 L 345.974 215.367 L 344.974 214.367 Z"/>
  <path style="fill:#8d9aa5; stroke:none;" d="M 358.974 214.367 L 359.974 215.367 L 358.974 214.367 Z"/>
  <path style="fill:#adb5be; stroke:none;" d="M 424.974 214.367 L 425.974 215.367 L 424.974 214.367 Z"/>
  <path style="fill:#8d9aa5; stroke:none;" d="M 164.974 215.367 L 165.974 216.367 L 164.974 215.367 Z"/>
  <path style="fill:#aed0d2; stroke:none;" d="M 177.974 215.367 L 178.974 216.367 L 177.974 215.367 Z"/>
  <path style="fill:#8d9aa5; stroke:none;" d="M 189.974 215.367 L 190.974 216.367 L 189.974 215.367 M 229.974 215.367 L 230.974 216.367 L 229.974 215.367 Z"/>
  <path style="fill:#aed0d2; stroke:none;" d="M 243.974 215.367 L 244.974 216.367 L 243.974 215.367 Z"/>
  <path style="fill:#8d9aa5; stroke:none;" d="M 308.974 215.367 L 309.974 216.367 L 308.974 215.367 Z"/>
  <path style="fill:#aed0d2; stroke:none;" d="M 359.974 215.367 L 360.974 216.367 L 359.974 215.367 Z"/>
  <path style="fill:#8d9aa5; stroke:none;" d="M 393.974 215.367 L 393.974 240.367 L 381.974 240.367 L 381.974 241.367 L 394.974 241.367 L 393.974 215.367 M 163.974 216.367 L 164.974 217.367 L 163.974 216.367 M 190.974 216.367 L 191.974 217.367 L 190.974 216.367 Z"/>
  <path style="fill:#aed0d2; stroke:none;" d="M 229.974 216.367 L 230.974 217.367 L 229.974 216.367 Z"/>
  <path style="fill:#8d9aa5; stroke:none;" d="M 243.974 216.367 L 244.974 217.367 L 243.974 216.367 Z"/>
  <path style="fill:#adb5be; stroke:none;" d="M 321.974 216.367 L 322.974 217.367 L 321.974 216.367 Z"/>
  <path style="fill:#8d9aa5; stroke:none;" d="M 345.974 216.367 L 346.974 217.367 L 345.974 216.367 M 359.974 216.367 L 360.974 217.367 L 359.974 216.367 Z"/>
  <path style="fill:#aed0d2; stroke:none;" d="M 410.974 216.367 L 411.974 217.367 L 410.974 216.367 Z"/>
  <path style="fill:#8d9aa5; stroke:none;" d="M 425.974 216.367 L 426.974 217.367 L 425.974 216.367 M 162.974 217.367 L 163.974 218.367 L 162.974 217.367 M 177.307 218.034 L 177.641 218.7 L 177.307 218.034 Z"/>
  <path style="fill:#adb5be; stroke:none;" d="M 191.974 217.367 L 192.974 218.367 L 191.974 217.367 M 244.974 217.367 L 245.974 218.367 L 244.974 217.367 M 307.974 217.367 L 308.974 218.367 L 307.974 217.367 Z"/>
  <path style="fill:#aed0d2; stroke:none;" d="M 345.974 217.367 L 346.974 218.367 L 345.974 217.367 Z"/>
  <path style="fill:#8d9aa5; stroke:none;" d="M 411.974 217.367 L 412.974 218.367 L 411.974 217.367 Z"/>
  <path style="fill:#adb5be; stroke:none;" d="M 426.974 217.367 L 427.974 218.367 L 426.974 217.367 Z"/>
  <path style="fill:#aed0d2; stroke:none;" d="M 192.974 218.367 L 193.974 219.367 L 192.974 218.367 Z"/>
  <path style="fill:#8d9aa5; stroke:none;" d="M 230.974 218.367 L 231.974 219.367 L 230.974 218.367 M 320.974 218.367 L 321.974 219.367 L 320.974 218.367 Z"/>
  <path style="fill:#aed0d2; stroke:none;" d="M 360.974 218.367 L 361.974 219.367 L 360.974 218.367 Z"/>
  <path style="fill:#8d9aa5; stroke:none;" d="M 412.974 218.367 L 413.974 219.367 L 412.974 218.367 Z"/>
  <path style="fill:#aed0d2; stroke:none;" d="M 427.974 218.367 L 428.974 219.367 L 427.974 218.367 M 15.974 219.367 C 16 226.69 17.651 228.341 24.974 228.367 L 24.974 219.367 L 15.974 219.367 M 176.974 219.367 L 177.974 220.367 L 176.974 219.367 M 230.974 219.367 L 231.974 220.367 L 230.974 219.367 Z"/>
  <path style="fill:#8d9aa5; stroke:none;" d="M 245.974 219.367 L 246.974 220.367 L 245.974 219.367 Z"/>
  <path style="fill:#aed0d2; stroke:none;" d="M 306.974 219.367 L 307.974 220.367 L 306.974 219.367 M 320.974 219.367 L 321.974 220.367 L 320.974 219.367 Z"/>
  <path style="fill:#8d9aa5; stroke:none;" d="M 346.974 219.367 L 347.974 220.367 L 346.974 219.367 M 360.974 219.367 L 361.974 220.367 L 360.974 219.367 Z"/>
  <path style="fill:#aed0d2; stroke:none;" d="M 160.974 220.367 L 161.974 221.367 L 160.974 220.367 M 177.974 220.367 L 178.974 221.367 L 177.974 220.367 Z"/>
  <path style="fill:#8d9aa5; stroke:none;" d="M 193.974 220.367 L 194.974 221.367 L 193.974 220.367 M 231.974 220.367 L 232.974 221.367 L 231.974 220.367 M 246.974 220.367 L 247.974 221.367 L 246.974 220.367 M 306.974 220.367 L 307.974 221.367 L 306.974 220.367 Z"/>
  <path style="fill:#aed0d2; stroke:none;" d="M 346.974 220.367 L 347.974 221.367 L 346.974 220.367 Z"/>
  <path style="fill:#adb5be; stroke:none;" d="M 413.974 220.367 L 414.974 221.367 L 413.974 220.367 Z"/>
  <path style="fill:#8d9aa5; stroke:none;" d="M 428.974 220.367 L 429.974 221.367 L 428.974 220.367 Z"/>
  <path style="fill:#ffffff; stroke:none;" d="M 17.974 221.367 L 17.974 226.367 L 22.974 226.367 L 22.974 221.367 L 17.974 221.367 Z"/>
  <path style="fill:#aed0d2; stroke:none;" d="M 31.974 222.367 C 34.723 227.353 39.869 226.367 44.974 226.367 C 56.869 226.367 70.37 228.13 81.974 225.367 C 80.234 220.126 74.674 221.367 69.974 221.367 C 58.141 221.367 43.333 219.009 31.974 222.367 M 159.974 221.367 L 160.974 222.367 L 159.974 221.367 Z"/>
  <path style="fill:#adb5be; stroke:none;" d="M 178.974 221.367 L 179.974 222.367 L 178.974 221.367 Z"/>
  <path style="fill:#8d9aa5; stroke:none;" d="M 194.974 221.367 L 195.974 222.367 L 194.974 221.367 Z"/>
  <path style="fill:#adb5be; stroke:none;" d="M 247.974 221.367 L 248.974 222.367 L 247.974 221.367 M 319.974 221.367 L 320.974 222.367 L 319.974 221.367 Z"/>
  <path style="fill:#8d9aa5; stroke:none;" d="M 347.974 221.367 L 348.974 222.367 L 347.974 221.367 Z"/>
  <path style="fill:#adb5be; stroke:none;" d="M 361.974 221.367 L 362.974 222.367 L 361.974 221.367 Z"/>
  <path style="fill:#8d9aa5; stroke:none;" d="M 414.974 221.367 L 415.974 222.367 L 414.974 221.367 Z"/>
  <path style="fill:#adb5be; stroke:none;" d="M 429.974 221.367 L 430.974 222.367 L 429.974 221.367 Z"/>
  <path style="fill:#aed0d2; stroke:none;" d="M 158.974 222.367 L 159.974 223.367 L 158.974 222.367 Z"/>
  <path style="fill:#8d9aa5; stroke:none;" d="M 179.974 222.367 L 180.974 223.367 L 179.974 222.367 Z"/>
  <path style="fill:#aed0d2; stroke:none;" d="M 195.974 222.367 L 196.974 223.367 L 195.974 222.367 Z"/>
  <path style="fill:#8d9aa5; stroke:none;" d="M 232.974 222.367 L 233.974 223.367 L 232.974 222.367 Z"/>
  <path style="fill:#adb5be; stroke:none;" d="M 248.974 222.367 L 249.974 223.367 L 248.974 222.367 Z"/>
  <path style="fill:#8d9aa5; stroke:none;" d="M 305.974 222.367 L 306.974 223.367 L 305.974 222.367 Z"/>
  <path style="fill:#adb5be; stroke:none;" d="M 347.974 222.367 L 348.974 223.367 L 347.974 222.367 Z"/>
  <path style="fill:#8d9aa5; stroke:none;" d="M 361.974 222.367 L 362.974 223.367 L 361.974 222.367 M 157.974 223.367 L 157.974 240.367 L 158.974 240.367 L 157.974 223.367 M 180.974 223.367 L 181.974 224.367 L 180.974 223.367 M 249.974 223.367 L 250.974 224.367 L 249.974 223.367 M 318.974 223.367 L 319.974 224.367 L 318.974 223.367 Z"/>
  <path style="fill:#aed0d2; stroke:none;" d="M 415.974 223.367 L 416.974 224.367 L 415.974 223.367 Z"/>
  <path style="fill:#8d9aa5; stroke:none;" d="M 430.974 223.367 L 431.974 224.367 L 430.974 223.367 Z"/>
  <path style="fill:#aed0d2; stroke:none;" d="M 180.974 224.367 L 181.974 225.367 L 180.974 224.367 Z"/>
  <path style="fill:#8d9aa5; stroke:none;" d="M 233.974 224.367 L 234.974 225.367 L 233.974 224.367 M 250.974 224.367 L 251.974 225.367 L 250.974 224.367 Z"/>
  <path style="fill:#aed0d2; stroke:none;" d="M 251.974 224.367 L 252.974 225.367 L 251.974 224.367 M 304.974 224.367 L 305.974 225.367 L 304.974 224.367 M 318.974 224.367 L 319.974 225.367 L 318.974 224.367 Z"/>
  <path style="fill:#8d9aa5; stroke:none;" d="M 348.974 224.367 L 349.974 225.367 L 348.974 224.367 Z"/>
  <path style="fill:#adb5be; stroke:none;" d="M 362.974 224.367 L 363.974 225.367 L 362.974 224.367 Z"/>
  <path style="fill:#8d9aa5; stroke:none;" d="M 416.974 224.367 L 417.974 225.367 L 416.974 224.367 M 431.974 224.367 L 432.974 225.367 L 431.974 224.367 Z"/>
  <path style="fill:#aed0d2; stroke:none;" d="M 181.974 225.367 L 182.974 226.367 L 181.974 225.367 Z"/>
  <path style="fill:#8d9aa5; stroke:none;" d="M 197.974 225.367 L 198.974 226.367 L 197.974 225.367 M 234.974 225.367 L 235.974 226.367 L 234.974 225.367 M 252.974 225.367 L 253.974 226.367 L 252.974 225.367 Z"/>
  <path style="fill:#aed0d2; stroke:none;" d="M 253.974 225.367 L 254.974 226.367 L 253.974 225.367 Z"/>
  <path style="fill:#8d9aa5; stroke:none;" d="M 304.974 225.367 L 305.974 226.367 L 304.974 225.367 Z"/>
  <path style="fill:#aed0d2; stroke:none;" d="M 348.974 225.367 L 349.974 226.367 L 348.974 225.367 Z"/>
  <path style="fill:#8d9aa5; stroke:none;" d="M 362.974 225.367 L 363.974 226.367 L 362.974 225.367 Z"/>
  <path style="fill:#aed0d2; stroke:none;" d="M 432.974 225.367 L 433.974 226.367 L 432.974 225.367 Z"/>
  <path style="fill:#adb5be; stroke:none;" d="M 182.974 226.367 L 183.974 227.367 L 182.974 226.367 M 198.974 226.367 L 199.974 227.367 L 198.974 226.367 Z"/>
  <path style="fill:#8d9aa5; stroke:none;" d="M 235.974 226.367 L 236.974 227.367 L 235.974 226.367 M 254.974 226.367 L 255.974 227.367 L 254.974 226.367 Z"/>
  <path style="fill:#aed0d2; stroke:none;" d="M 255.974 226.367 L 256.974 227.367 L 255.974 226.367 Z"/>
  <path style="fill:#adb5be; stroke:none;" d="M 317.974 226.367 L 318.974 227.367 L 317.974 226.367 Z"/>
  <path style="fill:#aed0d2; stroke:none;" d="M 363.974 226.367 L 364.974 227.367 L 363.974 226.367 M 417.974 226.367 L 418.974 227.367 L 417.974 226.367 Z"/>
  <path style="fill:#8d9aa5; stroke:none;" d="M 183.974 227.367 L 184.974 228.367 L 183.974 227.367 Z"/>
  <path style="fill:#aed0d2; stroke:none;" d="M 199.974 227.367 L 200.974 228.367 L 199.974 227.367 Z"/>
  <path style="fill:#8d9aa5; stroke:none;" d="M 257.974 227.367 L 258.974 228.367 L 257.974 227.367 Z"/>
  <path style="fill:#adb5be; stroke:none;" d="M 258.974 227.367 L 259.974 228.367 L 258.974 227.367 Z"/>
  <path style="fill:#8d9aa5; stroke:none;" d="M 303.974 227.367 L 304.974 228.367 L 303.974 227.367 M 349.974 227.367 L 350.974 228.367 L 349.974 227.367 M 363.974 227.367 L 364.974 228.367 L 363.974 227.367 Z"/>
  <path style="fill:#adb5be; stroke:none;" d="M 418.974 227.367 L 419.974 228.367 L 418.974 227.367 Z"/>
  <path style="fill:#8d9aa5; stroke:none;" d="M 433.974 227.367 L 434.974 228.367 L 433.974 227.367 M 184.974 228.367 L 185.974 229.367 L 184.974 228.367 M 261.974 228.367 L 261.974 229.367 L 264.974 229.367 L 261.974 228.367 Z"/>
  <path style="fill:#adb5be; stroke:none;" d="M 264.974 228.367 L 265.974 229.367 L 264.974 228.367 Z"/>
  <path style="fill:#aed0d2; stroke:none;" d="M 265.974 228.367 L 265.974 229.367 L 283.974 229.367 L 283.974 241.367 L 284.974 241.367 L 284.974 228.367 L 265.974 228.367 Z"/>
  <path style="fill:#8d9aa5; stroke:none;" d="M 316.974 228.367 L 317.974 229.367 L 316.974 228.367 M 419.974 228.367 L 420.974 229.367 L 419.974 228.367 Z"/>
  <path style="fill:#adb5be; stroke:none;" d="M 434.974 228.367 L 435.974 229.367 L 434.974 228.367 Z"/>
  <path style="fill:#8d9aa5; stroke:none;" d="M 200.974 229.367 L 201.974 230.367 L 200.974 229.367 Z"/>
  <path style="fill:#aed0d2; stroke:none;" d="M 237.974 229.367 L 238.974 230.367 L 237.974 229.367 M 302.974 229.367 L 303.974 230.367 L 302.974 229.367 Z"/>
  <path style="fill:#8d9aa5; stroke:none;" d="M 350.974 229.367 L 351.974 230.367 L 350.974 229.367 Z"/>
  <path style="fill:#aed0d2; stroke:none;" d="M 364.974 229.367 L 365.974 230.367 L 364.974 229.367 M 435.974 229.367 L 436.974 230.367 L 435.974 229.367 M 185.974 230.367 L 186.974 231.367 L 185.974 230.367 Z"/>
  <path style="fill:#8d9aa5; stroke:none;" d="M 201.974 230.367 L 202.974 231.367 L 201.974 230.367 M 302.974 230.367 L 303.974 231.367 L 302.974 230.367 Z"/>
  <path style="fill:#adb5be; stroke:none;" d="M 350.974 230.367 L 351.974 231.367 L 350.974 230.367 Z"/>
  <path style="fill:#8d9aa5; stroke:none;" d="M 364.974 230.367 L 365.974 231.367 L 364.974 230.367 Z"/>
  <path style="fill:#adb5be; stroke:none;" d="M 420.974 230.367 L 421.974 231.367 L 420.974 230.367 Z"/>
  <path style="fill:#8d9aa5; stroke:none;" d="M 435.974 230.367 L 436.974 231.367 L 435.974 230.367 Z"/>
  <path style="fill:#aed0d2; stroke:none;" d="M 15.974 231.367 L 15.974 240.367 L 24.974 240.367 L 24.974 231.367 L 15.974 231.367 Z"/>
  <path style="fill:#adb5be; stroke:none;" d="M 186.974 231.367 L 187.974 232.367 L 186.974 231.367 M 202.974 231.367 L 203.974 232.367 L 202.974 231.367 Z"/>
  <path style="fill:#8d9aa5; stroke:none;" d="M 240.974 231.367 L 241.974 232.367 L 240.974 231.367 Z"/>
  <path style="fill:#adb5be; stroke:none;" d="M 315.974 231.367 L 316.974 232.367 L 315.974 231.367 Z"/>
  <path style="fill:#8d9aa5; stroke:none;" d="M 421.974 231.367 L 422.974 232.367 L 421.974 231.367 M 436.974 231.367 L 437.974 232.367 L 436.974 231.367 M 187.974 232.367 L 188.974 233.367 L 187.974 232.367 Z"/>
  <path style="fill:#aed0d2; stroke:none;" d="M 203.974 232.367 L 204.974 233.367 L 203.974 232.367 Z"/>
  <path style="fill:#adb5be; stroke:none;" d="M 241.974 232.367 L 242.974 233.367 L 241.974 232.367 Z"/>
  <path style="fill:#8d9aa5; stroke:none;" d="M 301.974 232.367 L 302.974 233.367 L 301.974 232.367 M 351.974 232.367 L 352.974 233.367 L 351.974 232.367 Z"/>
  <path style="fill:#adb5be; stroke:none;" d="M 365.974 232.367 L 366.974 233.367 L 365.974 232.367 Z"/>
  <path style="fill:#aed0d2; stroke:none;" d="M 437.974 232.367 L 438.974 233.367 L 437.974 232.367 Z"/>
  <path style="fill:#ffffff; stroke:none;" d="M 17.974 233.367 L 17.974 238.367 L 22.974 238.367 L 22.974 233.367 L 17.974 233.367 Z"/>
  <path style="fill:#aed0d2; stroke:none;" d="M 31.974 234.367 C 34.595 242.264 61.483 238.367 68.974 238.367 C 71.76 238.367 79.027 239.621 80.798 236.822 C 83.401 232.71 72.536 233.367 70.974 233.367 L 63.974 233.367 L 50.974 233.367 C 44.628 233.367 38.182 232.889 31.974 234.367 Z"/>
  <path style="fill:#8d9aa5; stroke:none;" d="M 188.974 233.367 L 189.974 234.367 L 188.974 233.367 Z"/>
  <path style="fill:#aed0d2; stroke:none;" d="M 242.974 233.367 L 243.974 234.367 L 242.974 233.367 Z"/>
  <path style="fill:#8d9aa5; stroke:none;" d="M 314.974 233.367 L 315.974 234.367 L 314.974 233.367 Z"/>
  <path style="fill:#aed0d2; stroke:none;" d="M 351.974 233.367 L 352.974 234.367 L 351.974 233.367 Z"/>
  <path style="fill:#8d9aa5; stroke:none;" d="M 365.974 233.367 L 366.974 234.367 L 365.974 233.367 Z"/>
  <path style="fill:#aed0d2; stroke:none;" d="M 422.974 233.367 L 423.974 234.367 L 422.974 233.367 Z"/>
  <path style="fill:#8d9aa5; stroke:none;" d="M 204.974 234.367 L 205.974 235.367 L 204.974 234.367 Z"/>
  <path style="fill:#aed0d2; stroke:none;" d="M 243.974 234.367 L 244.974 235.367 L 243.974 234.367 Z"/>
  <path style="fill:#8d9aa5; stroke:none;" d="M 244.974 234.367 L 245.974 235.367 L 244.974 234.367 Z"/>
  <path style="fill:#adb5be; stroke:none;" d="M 300.974 234.367 L 301.974 235.367 L 300.974 234.367 Z"/>
  <path style="fill:#8d9aa5; stroke:none;" d="M 423.974 234.367 L 424.974 235.367 L 423.974 234.367 M 438.974 234.367 L 439.974 235.367 L 438.974 234.367 Z"/>
  <path style="fill:#aed0d2; stroke:none;" d="M 189.974 235.367 L 190.974 236.367 L 189.974 235.367 Z"/>
  <path style="fill:#8d9aa5; stroke:none;" d="M 205.974 235.367 L 206.974 236.367 L 205.974 235.367 Z"/>
  <path style="fill:#aed0d2; stroke:none;" d="M 245.974 235.367 L 246.974 236.367 L 245.974 235.367 Z"/>
  <path style="fill:#8d9aa5; stroke:none;" d="M 246.974 235.367 L 247.974 236.367 L 246.974 235.367 M 300.974 235.367 L 301.974 236.367 L 300.974 235.367 Z"/>
  <path style="fill:#adb5be; stroke:none;" d="M 352.974 235.367 L 353.974 236.367 L 352.974 235.367 M 366.974 235.367 L 367.974 236.367 L 366.974 235.367 Z"/>
  <path style="fill:#8d9aa5; stroke:none;" d="M 424.974 235.367 L 425.974 236.367 L 424.974 235.367 Z"/>
  <path style="fill:#adb5be; stroke:none;" d="M 439.974 235.367 L 440.974 236.367 L 439.974 235.367 M 190.974 236.367 L 191.974 237.367 L 190.974 236.367 Z"/>
  <path style="fill:#aed0d2; stroke:none;" d="M 206.974 236.367 L 207.974 237.367 L 206.974 236.367 M 247.974 236.367 L 248.974 237.367 L 247.974 236.367 Z"/>
  <path style="fill:#8d9aa5; stroke:none;" d="M 248.974 236.367 L 249.974 237.367 L 248.974 236.367 Z"/>
  <path style="fill:#aed0d2; stroke:none;" d="M 299.974 236.367 L 300.974 237.367 L 299.974 236.367 Z"/>
  <path style="fill:#adb5be; stroke:none;" d="M 313.974 236.367 L 314.974 237.367 L 313.974 236.367 Z"/>
  <path style="fill:#8d9aa5; stroke:none;" d="M 366.974 236.367 L 367.974 237.367 L 366.974 236.367 Z"/>
  <path style="fill:#aed0d2; stroke:none;" d="M 440.974 236.367 L 441.974 237.367 L 440.974 236.367 Z"/>
  <path style="fill:#8d9aa5; stroke:none;" d="M 191.974 237.367 L 192.974 238.367 L 191.974 237.367 Z"/>
  <path style="fill:#aed0d2; stroke:none;" d="M 249.974 237.367 L 250.974 238.367 L 249.974 237.367 Z"/>
  <path style="fill:#8d9aa5; stroke:none;" d="M 250.974 237.367 L 251.974 238.367 L 250.974 237.367 M 299.974 237.367 L 300.974 238.367 L 299.974 237.367 M 353.974 237.367 L 354.974 238.367 L 353.974 237.367 Z"/>
  <path style="fill:#aed0d2; stroke:none;" d="M 367.974 237.367 L 368.974 238.367 L 367.974 237.367 Z"/>
  <path style="fill:#adb5be; stroke:none;" d="M 425.974 237.367 L 426.974 238.367 L 425.974 237.367 Z"/>
  <path style="fill:#8d9aa5; stroke:none;" d="M 440.974 237.367 L 441.974 238.367 L 440.974 237.367 M 192.974 238.367 L 193.974 239.367 L 192.974 238.367 Z"/>
  <path style="fill:#aed0d2; stroke:none;" d="M 252.974 238.367 L 253.974 239.367 L 252.974 238.367 Z"/>
  <path style="fill:#8d9aa5; stroke:none;" d="M 253.974 238.367 L 254.974 239.367 L 253.974 238.367 M 312.974 238.367 L 313.974 239.367 L 312.974 238.367 Z"/>
  <path style="fill:#aed0d2; stroke:none;" d="M 353.974 238.367 L 354.974 239.367 L 353.974 238.367 Z"/>
  <path style="fill:#8d9aa5; stroke:none;" d="M 367.974 238.367 L 368.974 239.367 L 367.974 238.367 M 426.974 238.367 L 427.974 239.367 L 426.974 238.367 M 441.974 238.367 L 442.974 239.367 L 441.974 238.367 M 193.974 239.367 L 194.974 240.367 L 193.974 239.367 M 208.974 239.367 L 209.974 240.367 L 208.974 239.367 Z"/>
  <path style="fill:#adb5be; stroke:none;" d="M 256.974 239.367 L 257.974 240.367 L 256.974 239.367 Z"/>
  <path style="fill:#8d9aa5; stroke:none;" d="M 257.974 239.367 L 258.974 240.367 L 257.974 239.367 Z"/>
  <path style="fill:#adb5be; stroke:none;" d="M 298.974 239.367 L 299.974 240.367 L 298.974 239.367 Z"/>
  <path style="fill:#aed0d2; stroke:none;" d="M 442.974 239.367 L 443.974 240.367 L 442.974 239.367 M 145.974 240.367 L 145.974 241.367 L 158.974 241.367 L 145.974 240.367 M 194.974 240.367 L 194.974 241.367 L 210.974 241.367 L 194.974 240.367 M 263.974 240.367 L 264.974 241.367 L 263.974 240.367 Z"/>
  <path style="fill:#adb5be; stroke:none;" d="M 265.641 240.7 L 266.307 241.034 L 265.641 240.7 Z"/>
  <path style="fill:#8d9aa5; stroke:none;" d="M 266.974 240.367 L 266.974 241.367 L 283.974 241.367 L 266.974 240.367 M 298.974 240.367 L 298.974 241.367 L 312.974 241.367 L 298.974 240.367 M 354.974 240.367 L 354.974 241.367 L 368.974 241.367 L 354.974 240.367 Z"/>
  <path style="fill:#aed0d2; stroke:none;" d="M 368.974 240.367 L 369.974 241.367 L 368.974 240.367 M 427.974 240.367 L 428.974 241.367 L 427.974 240.367 Z"/>
  <path style="fill:#8d9aa5; stroke:none;" d="M 428.974 240.367 L 428.974 241.367 L 443.974 241.367 L 428.974 240.367 Z"/>
</svg>